<svg aria-hidden="true" style="position: absolute; width: 0; height: 0; overflow: hidden;" version="1.1" xmlns="http://www.w3.org/2000/svg" xmlns:xlink="http://www.w3.org/1999/xlink">
<defs>
<symbol id="icon-angle-down" viewBox="0 0 32 32">
<path d="M15.233 19.175l0.754 0.754 6.035-6.035-0.754-0.754-5.281 5.281-5.256-5.256-0.754 0.754 3.013 3.013z"></path>
</symbol>
<symbol id="icon-check" viewBox="0 0 32 32">
<path d="M16 2.672c-7.361 0-13.328 5.967-13.328 13.328s5.968 13.328 13.328 13.328c7.361 0 13.328-5.967 13.328-13.328s-5.967-13.328-13.328-13.328zM16 28.262c-6.761 0-12.262-5.501-12.262-12.262s5.5-12.262 12.262-12.262c6.761 0 12.262 5.501 12.262 12.262s-5.5 12.262-12.262 12.262z"></path>
<path d="M22.667 11.241l-8.559 8.299-2.998-2.998c-0.312-0.312-0.818-0.312-1.131 0s-0.312 0.818 0 1.131l3.555 3.555c0.156 0.156 0.361 0.234 0.565 0.234 0.2 0 0.401-0.075 0.556-0.225l9.124-8.848c0.317-0.308 0.325-0.814 0.018-1.131-0.309-0.318-0.814-0.325-1.131-0.018z"></path>
</symbol>
<symbol id="icon-facebook" viewBox="0 0 32 32">
<path d="M21.238 5.313h3.012v-5.088c-0.519-0.069-2.306-0.225-4.387-0.225-4.344 0-7.319 2.65-7.319 7.519v4.481h-4.794v5.688h4.794v14.313h5.875v-14.313h4.6l0.731-5.688h-5.331v-3.919c0-1.644 0.456-2.769 2.819-2.769z"></path>
</symbol>
<symbol id="icon-like" viewBox="0 0 32 32">
<path d="M29.775 15.638c0-1.288-1.020-2.282-2.374-2.282h-8.536c0.545-1.265 1.524-3.919 1.524-6.659 0-3.128-1.569-3.784-2.886-3.784-0.816 0-1.996 0.619-1.996 1.737 0 0.472-0.075 4.671-2.639 6.822-2.732 2.292-3.509 2.891-5.005 2.891-1.746 0-4.847 0.038-4.847 0.038l-0.517 0.007v12.206h5.712c0.371 0 1.483 0.496 2.466 0.932 1.622 0.722 3.459 1.541 4.696 1.541l8.25-0.003c1.343 0 2.436-1.056 2.436-2.354 0-0.529-0.189-1.012-0.494-1.405 0.984-0.282 1.711-1.18 1.711-2.254 0-0.539-0.19-1.031-0.496-1.429 0.968-0.309 1.677-1.207 1.677-2.277 0-0.538-0.184-1.031-0.485-1.431 1.031-0.258 1.801-1.185 1.801-2.295zM27.401 16.962h-1.822v1.049h0.477c0.746 0 1.353 0.607 1.353 1.353s-0.608 1.353-1.353 1.353h-1.526v1.049h0.394c0.719 0 1.304 0.585 1.304 1.305s-0.585 1.305-1.304 1.305h-1.443v1.049h0.143c0.764 0 1.387 0.586 1.387 1.305s-0.623 1.305-1.387 1.305h-1.34v0.003h-6.91c-1.014 0-2.819-0.804-4.27-1.45-1.425-0.634-2.326-1.023-2.892-1.023h-4.663v-10.121c0.955-0.011 3.013-0.032 4.315-0.032 1.94 0 2.959-0.854 5.679-3.136 2.868-2.406 3.014-6.774 3.014-7.626 0-0.428 0.657-0.688 0.947-0.688 0.549 0 1.837 0 1.837 2.735 0 3.456-1.745 6.91-1.762 6.945l-0.39 0.763h6.426c0.018 0.013 0.030 0 0.030 0h3.757c0.767 0 1.325 0.532 1.325 1.233 0 0.73-0.594 1.324-1.325 1.324z"></path>
</symbol>
<symbol id="icon-linkedin" viewBox="0 0 32 32">
<path d="M8.268 28h-5.805v-18.694h5.805zM5.362 6.756c-1.856 0-3.362-1.537-3.362-3.394s1.505-3.362 3.362-3.362 3.362 1.505 3.362 3.362v0c0 1.856-1.506 3.394-3.362 3.394zM29.994 28h-5.793v-9.1c0-2.169-0.044-4.95-3.018-4.95-3.018 0-3.481 2.356-3.481 4.794v9.256h-5.799v-18.694h5.568v2.55h0.081c0.775-1.469 2.668-3.019 5.492-3.019 5.875 0 6.955 3.869 6.955 8.894v10.269z"></path>
</symbol>
<symbol id="icon-pinterest" viewBox="0 0 32 32">
<path d="M31.5 16c0 8.563-6.938 15.5-15.5 15.5-1.6 0-3.137-0.244-4.588-0.694 0.631-1.031 1.575-2.719 1.925-4.063 0.188-0.725 0.963-3.688 0.963-3.688 0.506 0.962 1.981 1.781 3.55 1.781 4.675 0 8.044-4.3 8.044-9.644 0-5.119-4.181-8.95-9.556-8.95-6.688 0-10.244 4.488-10.244 9.381 0 2.275 1.213 5.106 3.144 6.006 0.294 0.137 0.45 0.075 0.519-0.206 0.050-0.212 0.313-1.269 0.431-1.756 0.037-0.156 0.019-0.294-0.106-0.444-0.631-0.781-1.144-2.206-1.144-3.537 0-3.419 2.588-6.725 7-6.725 3.806 0 6.475 2.594 6.475 6.306 0 4.194-2.119 7.1-4.875 7.1-1.519 0-2.662-1.256-2.294-2.8 0.438-1.844 1.281-3.831 1.281-5.162 0-1.188-0.637-2.181-1.963-2.181-1.556 0-2.806 1.606-2.806 3.762 0 1.375 0.463 2.3 0.463 2.3s-1.531 6.488-1.813 7.7c-0.313 1.337-0.188 3.225-0.056 4.45-5.763-2.256-9.85-7.869-9.85-14.438 0-8.563 6.938-15.5 15.5-15.5s15.5 6.938 15.5 15.5z"></path>
</symbol>
<symbol id="icon-quote" viewBox="0 0 32 32">
<path d="M14.935 18.731v6.857q0 1.429-1 2.429t-2.429 1h-6.857q-1.429 0-2.429-1t-1-2.429v-12.571q0-1.857 0.723-3.545t1.955-2.92 2.92-1.955 3.545-0.723h1.143q0.464 0 0.804 0.339t0.339 0.804v2.286q0 0.464-0.339 0.804t-0.804 0.339h-1.143q-1.893 0-3.232 1.339t-1.339 3.232v0.571q0 0.714 0.5 1.214t1.214 0.5h4q1.429 0 2.429 1t1 2.429zM30.935 18.731v6.857q0 1.429-1 2.429t-2.429 1h-6.857q-1.429 0-2.429-1t-1-2.429v-12.571q0-1.857 0.723-3.545t1.955-2.92 2.92-1.955 3.545-0.723h1.143q0.464 0 0.804 0.339t0.339 0.804v2.286q0 0.464-0.339 0.804t-0.804 0.339h-1.143q-1.893 0-3.232 1.339t-1.339 3.232v0.571q0 0.714 0.5 1.214t1.214 0.5h4q1.429 0 2.429 1t1 2.429z"></path>
</symbol>
<symbol id="icon-search" viewBox="0 0 32 32">
<path d="M28.591 27.273l-7.263-7.264c1.46-1.756 2.339-4.010 2.339-6.471 0-5.595-4.535-10.129-10.129-10.129s-10.129 4.535-10.129 10.129c0 5.594 4.536 10.129 10.129 10.129 2.462 0 4.716-0.879 6.471-2.339l7.263 7.264 1.319-1.319zM4.475 13.538c0-4.997 4.065-9.063 9.063-9.063 4.997 0 9.063 4.066 9.063 9.063s-4.066 9.063-9.063 9.063c-4.998 0-9.063-4.066-9.063-9.063z"></path>
</symbol>
<symbol id="icon-twitter" viewBox="0 0 32 32">
<path d="M28.711 9.482c0.020 0.284 0.020 0.569 0.020 0.853 0 8.67-6.599 18.66-18.66 18.66-3.716 0-7.168-1.076-10.071-2.944 0.528 0.061 1.036 0.081 1.584 0.081 3.066 0 5.888-1.035 8.142-2.802-2.883-0.061-5.3-1.949-6.132-4.548 0.406 0.061 0.812 0.102 1.239 0.102 0.589 0 1.178-0.081 1.726-0.223-3.005-0.609-5.259-3.249-5.259-6.437v-0.081c0.873 0.487 1.888 0.792 2.964 0.832-1.766-1.178-2.924-3.188-2.924-5.462 0-1.218 0.325-2.335 0.893-3.31 3.228 3.98 8.081 6.579 13.523 6.863-0.101-0.487-0.162-0.995-0.162-1.502 0-3.614 2.924-6.558 6.558-6.558 1.888 0 3.594 0.792 4.792 2.071 1.482-0.284 2.904-0.832 4.162-1.584-0.487 1.523-1.523 2.802-2.883 3.614 1.32-0.142 2.599-0.508 3.777-1.015-0.893 1.299-2.010 2.457-3.289 3.391z"></path>
</symbol>
<symbol id="icon-youtube" viewBox="0 0 32 32">
<path d="M30.536 8.671c-0.349-1.314-1.377-2.349-2.682-2.7-2.366-0.638-11.854-0.638-11.854-0.638s-9.488 0-11.854 0.638c-1.305 0.351-2.333 1.386-2.682 2.7-0.634 2.381-0.634 7.35-0.634 7.35s0 4.969 0.634 7.35c0.349 1.314 1.377 2.306 2.682 2.657 2.366 0.638 11.854 0.638 11.854 0.638s9.488 0 11.854-0.638c1.305-0.351 2.334-1.343 2.682-2.657 0.634-2.381 0.634-7.35 0.634-7.35s0-4.969-0.634-7.35zM12.897 20.533v-9.023l7.93 4.511-7.93 4.511z"></path>
</symbol>
</defs>
</svg>
