<!-- Generated by IcoMoon.io -->
<svg version="1.1" xmlns="http://www.w3.org/2000/svg" width="32" height="32" viewBox="0 0 32 32">
<title>youtube</title>
<path d="M30.536 8.671c-0.349-1.314-1.377-2.349-2.682-2.7-2.366-0.638-11.854-0.638-11.854-0.638s-9.488 0-11.854 0.638c-1.305 0.351-2.333 1.386-2.682 2.7-0.634 2.381-0.634 7.35-0.634 7.35s0 4.969 0.634 7.35c0.349 1.314 1.377 2.306 2.682 2.657 2.366 0.638 11.854 0.638 11.854 0.638s9.488 0 11.854-0.638c1.305-0.351 2.334-1.343 2.682-2.657 0.634-2.381 0.634-7.35 0.634-7.35s0-4.969-0.634-7.35zM12.897 20.533v-9.023l7.93 4.511-7.93 4.511z"></path>
</svg>
